<svg width="1600" height="900" viewBox="0 0 1600 900" fill="none" xmlns="http://www.w3.org/2000/svg">
  <rect width="1600" height="900" rx="36" fill="#EAF1FF"/>
  <circle cx="1290" cy="190" r="140" fill="#C9DAFF"/>
  <circle cx="260" cy="170" r="90" fill="#DDE8FF"/>
  <rect x="120" y="500" width="1360" height="280" rx="24" fill="#D7E5FF"/>
  <rect x="220" y="290" width="1160" height="310" rx="24" fill="#F9FBFF"/>
  <rect x="300" y="350" width="180" height="200" rx="14" fill="#C5D8FF"/>
  <rect x="520" y="350" width="180" height="200" rx="14" fill="#C5D8FF"/>
  <rect x="740" y="350" width="180" height="200" rx="14" fill="#C5D8FF"/>
  <rect x="960" y="350" width="180" height="200" rx="14" fill="#C5D8FF"/>
  <rect x="1180" y="350" width="120" height="200" rx="14" fill="#C5D8FF"/>
  <rect x="690" y="430" width="220" height="170" rx="20" fill="#7EA6FF"/>
  <rect x="760" y="500" width="80" height="100" rx="12" fill="#EAF1FF"/>
  <circle cx="530" cy="700" r="40" fill="#2B63D9"/>
  <circle cx="640" cy="700" r="40" fill="#2B63D9"/>
  <circle cx="760" cy="700" r="40" fill="#2B63D9"/>
  <circle cx="870" cy="700" r="40" fill="#2B63D9"/>
  <circle cx="980" cy="700" r="40" fill="#2B63D9"/>
</svg>
